# xmcd
#
# Track frame offsets: 
#        150
#        11812
#        21590
#        42607
#        60287
#        71775
#        83640
#        96325
#        109192
#        119902
#        131440
#        146200
#        159542
#        172167
#        185400
#        197087
#
# Disc length: 2791 seconds
#
# Revision: 0
# Processed by: cddbd v1.4PL0 Copyright (c) Steve Scherf et al.
# Submitted via: ExactAudioCopy v0.95a3
#
DISCID=f40ae510
DTITLE=Various Artist - Country Legends - Precious Memories
DYEAR=1900
DGENRE=Country
TTITLE0=Marty Robbins - Story of my Life
TTITLE1=Marty Robbins - Just Married
TTITLE2=Marty Robbins - El Paso
TTITLE3=Marty Robbins - Big Iron
TTITLE4=Marty Robbins - A White Sport Coat
TTITLE5=Marty Robbins - 18 Yellow Roses
TTITLE6=Marty Robbins - Streets of Laredo
TTITLE7=Johnny Horton - North to Alaska
TTITLE8=Johnny Horton - Jonny Reb
TTITLE9=Johnny Horton - Battle of New Orleans
TTITLE10=Johnny Horton - Sink the Bismarck
TTITLE11=Johnny Horton - Whispering Pines
TTITLE12=Johnny Horton - All for the Love of a Girl
TTITLE13=Hank Williams - Hey Good Looking
TTITLE14=Hank Williams - Kaw-Liga
TTITLE15=Hank Williams - Lovesick Blues
EXTD=
EXTT0=
EXTT1=
EXTT2=
EXTT3=
EXTT4=
EXTT5=
EXTT6=
EXTT7=
EXTT8=
EXTT9=
EXTT10=
EXTT11=
EXTT12=
EXTT13=
EXTT14=
EXTT15=
PLAYORDER=
